<svg width="41" height="41" viewBox="0 0 41 41" fill="none" xmlns="http://www.w3.org/2000/svg">
<rect width="41" height="41" rx="20.5" fill="#1C1C1C"/>
<path d="M27 19H23V15C23 14.4696 22.7893 13.9609 22.4142 13.5858C22.0391 13.2107 21.5304 13 21 13C20.4696 13 19.9609 13.2107 19.5858 13.5858C19.2107 13.9609 19 14.4696 19 15L19.071 19H15C14.4696 19 13.9609 19.2107 13.5858 19.5858C13.2107 19.9609 13 20.4696 13 21C13 21.5304 13.2107 22.0391 13.5858 22.4142C13.9609 22.7893 14.4696 23 15 23L19.071 22.929L19 27C19 27.5304 19.2107 28.0391 19.5858 28.4142C19.9609 28.7893 20.4696 29 21 29C21.5304 29 22.0391 28.7893 22.4142 28.4142C22.7893 28.0391 23 27.5304 23 27V22.929L27 23C27.5304 23 28.0391 22.7893 28.4142 22.4142C28.7893 22.0391 29 21.5304 29 21C29 20.4696 28.7893 19.9609 28.4142 19.5858C28.0391 19.2107 27.5304 19 27 19Z" fill="#E3F5FF"/>
</svg>
