<svg width="20" height="21" viewBox="0 0 20 21" fill="none" xmlns="http://www.w3.org/2000/svg">
<path fill-rule="evenodd" clip-rule="evenodd" d="M8.33334 14.0299C8.33334 14.4883 7.95834 14.8633 7.5 14.8633C7.04167 14.8633 6.66667 14.4883 6.66667 14.0299V10.6966C6.66667 10.2383 7.04167 9.86328 7.5 9.86328C7.95834 9.86328 8.33334 10.2383 8.33334 10.6966V14.0299ZM13.3333 14.0299C13.3333 14.4883 12.9583 14.8633 12.5 14.8633C12.0417 14.8633 11.6667 14.4883 11.6667 14.0299V10.6966C11.6667 10.2383 12.0417 9.86328 12.5 9.86328C12.9583 9.86328 13.3333 10.2383 13.3333 10.6966V14.0299ZM15 16.5299C15 16.9891 14.6267 17.3633 14.1667 17.3633H5.83334C5.37334 17.3633 5.00001 16.9891 5.00001 16.5299V7.36328H15V16.5299ZM8.33334 4.30328C8.33334 4.17411 8.51167 4.02995 8.75 4.02995H11.25C11.4883 4.02995 11.6667 4.17411 11.6667 4.30328V5.69661H8.33334V4.30328ZM17.5 5.69661H16.6667H13.3333V4.30328C13.3333 3.23328 12.3992 2.36328 11.25 2.36328H8.75001C7.60084 2.36328 6.66667 3.23328 6.66667 4.30328V5.69661H3.33334H2.50001C2.04167 5.69661 1.66667 6.07161 1.66667 6.52995C1.66667 6.98828 2.04167 7.36328 2.50001 7.36328H3.33334V16.5299C3.33334 17.9083 4.45501 19.0299 5.83334 19.0299H14.1667C15.545 19.0299 16.6667 17.9083 16.6667 16.5299V7.36328H17.5C17.9583 7.36328 18.3333 6.98828 18.3333 6.52995C18.3333 6.07161 17.9583 5.69661 17.5 5.69661Z" fill="#C5CEE0"/>
<mask id="mask0_42_12679" style="mask-type:alpha" maskUnits="userSpaceOnUse" x="1" y="2" width="18" height="18">
<path fill-rule="evenodd" clip-rule="evenodd" d="M8.33334 14.0299C8.33334 14.4883 7.95834 14.8633 7.5 14.8633C7.04167 14.8633 6.66667 14.4883 6.66667 14.0299V10.6966C6.66667 10.2383 7.04167 9.86328 7.5 9.86328C7.95834 9.86328 8.33334 10.2383 8.33334 10.6966V14.0299ZM13.3333 14.0299C13.3333 14.4883 12.9583 14.8633 12.5 14.8633C12.0417 14.8633 11.6667 14.4883 11.6667 14.0299V10.6966C11.6667 10.2383 12.0417 9.86328 12.5 9.86328C12.9583 9.86328 13.3333 10.2383 13.3333 10.6966V14.0299ZM15 16.5299C15 16.9891 14.6267 17.3633 14.1667 17.3633H5.83334C5.37334 17.3633 5.00001 16.9891 5.00001 16.5299V7.36328H15V16.5299ZM8.33334 4.30328C8.33334 4.17411 8.51167 4.02995 8.75 4.02995H11.25C11.4883 4.02995 11.6667 4.17411 11.6667 4.30328V5.69661H8.33334V4.30328ZM17.5 5.69661H16.6667H13.3333V4.30328C13.3333 3.23328 12.3992 2.36328 11.25 2.36328H8.75001C7.60084 2.36328 6.66667 3.23328 6.66667 4.30328V5.69661H3.33334H2.50001C2.04167 5.69661 1.66667 6.07161 1.66667 6.52995C1.66667 6.98828 2.04167 7.36328 2.50001 7.36328H3.33334V16.5299C3.33334 17.9083 4.45501 19.0299 5.83334 19.0299H14.1667C15.545 19.0299 16.6667 17.9083 16.6667 16.5299V7.36328H17.5C17.9583 7.36328 18.3333 6.98828 18.3333 6.52995C18.3333 6.07161 17.9583 5.69661 17.5 5.69661Z" fill="white"/>
</mask>
<g mask="url(#mask0_42_12679)">
</g>
</svg>
