<svg width="23" height="23" viewBox="0 0 23 23" fill="none" xmlns="http://www.w3.org/2000/svg">
<path fill-rule="evenodd" clip-rule="evenodd" d="M16.1728 10.3789L8.96116 17.5905C8.536 18.0157 7.95951 18.2539 7.35808 18.2536C6.75665 18.2533 6.17978 18.014 5.75456 17.5887C5.75427 17.5885 5.75399 17.5882 5.7537 17.5879C4.86818 16.7024 4.86752 15.2674 5.75208 14.3828L12.6088 7.52553C12.8166 7.31774 13.0985 7.20122 13.3925 7.20152C13.6869 7.20148 13.9687 7.31833 14.1766 7.52623C14.3449 7.69449 14.537 7.97355 14.5373 8.34628C14.5378 8.64868 14.4211 8.92222 14.2133 9.13001L9.8604 13.4823C9.5951 13.7476 9.59567 14.1788 9.86118 14.4443C10.1267 14.7099 10.5576 14.7101 10.8229 14.4448L15.1758 10.0925C15.6386 9.62972 15.8166 9.01143 15.8979 8.34718C15.9693 7.7641 15.6475 7.06437 15.1379 6.565C14.6703 6.1063 14.0466 5.84135 13.3916 5.84092C12.7373 5.84044 12.1091 6.10019 11.6463 6.56301L4.78956 13.4203C3.37373 14.8361 3.37502 17.1323 4.79213 18.5495L4.79299 18.5503C5.47345 19.2308 6.39663 19.6138 7.3587 19.6139C8.32072 19.6147 9.24349 19.2332 9.92368 18.553L17.1353 11.3414C18.0278 10.449 18.5285 9.23812 18.5277 7.97553C18.5269 6.71293 18.0251 5.50185 17.1316 4.60835C17.1313 4.60807 17.1313 4.60807 17.131 4.60778C15.2704 2.7472 12.2555 2.74601 10.397 4.60446C8.24895 6.75252 5.686 9.31546 5.686 9.31546C5.42071 9.58076 5.42099 10.0117 5.68651 10.2772C5.95202 10.5427 6.38322 10.5433 6.64852 10.278L11.3595 5.56698C12.687 4.23946 14.8405 4.24038 16.1694 5.56936L16.17 5.56993C16.808 6.20791 17.1667 7.07323 17.1674 7.9749C17.1677 8.8769 16.8102 9.74149 16.1728 10.3789Z" fill="black"/>
</svg>
