<svg xmlns="http://www.w3.org/2000/svg" fill="none" viewBox="44.0298875 26.938345864661656 1171.16 237.61654135338347" style="max-height: 500px" width="1171.16" height="237.61654135338347">
<g filter="url(#filter0_d_239_7715)">
<rect fill="#0841D4" rx="16" height="230" width="1165" y="30" x="44"/>
</g>
<mask height="230" width="1165" y="30" x="44" maskUnits="userSpaceOnUse" style="mask-type:alpha" id="mask0_239_7715">
<rect fill="url(#paint0_linear_239_7715)" rx="16" height="230" width="1165" y="30" x="44"/>
</mask>
<g mask="url(#mask0_239_7715)">
<path stroke-linecap="round" stroke-width="2" stroke="white" d="M508.395 20.7962L517.429 26.8288C526.463 32.8615 544.532 44.9268 568.216 48.014C591.901 51.1012 621.201 45.2103 644.411 49.0557C667.622 52.9011 684.741 66.4829 703.71 77.1092C722.678 87.7355 743.496 95.4064 764.665 102.515C785.834 109.624 807.354 116.17 833.429 115.435C859.505 114.701 890.134 106.685 918.326 102.566C946.518 98.4473 972.272 98.2257 992.983 106.067C1013.69 113.908 1029.36 129.811 1049.76 138.15C1070.16 146.488 1095.29 147.262 1118.45 151.186C1141.61 155.109 1162.81 162.183 1184.25 168.855C1205.69 175.526 1227.38 181.795 1255.51 177.786C1283.63 173.778 1318.18 159.493 1335.46 152.35L1352.73 145.207"/>
<path stroke-linecap="round" stroke-width="2" stroke="white" d="M523.953 15.3548L532.987 21.3874C542.021 27.4201 560.089 39.4854 583.774 42.5726C607.458 45.6598 636.759 39.7688 659.969 43.6143C683.179 47.4597 700.299 61.0415 719.268 71.6678C738.236 82.2941 759.053 89.965 780.222 97.0736C801.391 104.182 822.912 110.729 848.987 109.994C875.062 109.259 905.692 101.243 933.884 97.1246C962.076 93.0059 987.83 92.7843 1008.54 100.625C1029.25 108.466 1044.92 124.37 1065.32 132.708C1085.72 141.047 1110.85 141.82 1134.01 145.744C1157.17 149.668 1178.36 156.742 1199.81 163.413C1221.25 170.085 1242.94 176.353 1271.06 172.345C1299.19 168.337 1333.74 154.051 1351.02 146.908L1368.29 139.766"/>
<path stroke-linecap="round" stroke-width="2" stroke="white" d="M539.509 9.91432L548.543 15.947C557.578 21.9796 575.646 34.0449 599.331 37.1321C623.015 40.2193 652.315 34.3284 675.526 38.1738C698.736 42.0193 715.856 55.601 734.824 66.2274C753.793 76.8537 774.61 84.5246 795.779 91.6332C816.948 98.7418 838.468 105.288 864.544 104.553C890.619 103.819 921.248 95.8029 949.44 91.6842C977.632 87.5655 1003.39 87.3439 1024.1 95.1848C1044.81 103.026 1060.48 118.929 1080.88 127.268C1101.27 135.606 1126.41 136.38 1149.57 140.304C1172.73 144.227 1193.92 151.301 1215.36 157.973C1236.8 164.644 1258.5 170.913 1286.62 166.905C1314.74 162.896 1349.3 148.611 1366.57 141.468L1383.85 134.325"/>
<path stroke-linecap="round" stroke-width="2" stroke="white" d="M555.067 4.47292L564.101 10.5056C573.135 16.5382 591.204 28.6035 614.888 31.6907C638.573 34.7779 667.873 28.887 691.083 32.7324C714.293 36.5779 731.413 50.1596 750.382 60.786C769.35 71.4123 790.168 79.0832 811.336 86.1918C832.505 93.3004 854.026 99.8467 880.101 99.112C906.176 98.3773 936.806 90.3615 964.998 86.2428C993.19 82.1241 1018.94 81.9025 1039.65 89.7434C1060.37 97.5843 1076.03 113.488 1096.43 121.826C1116.83 130.165 1141.96 130.939 1165.13 134.862C1188.29 138.786 1209.48 145.86 1230.92 152.531C1252.36 159.203 1274.06 165.472 1302.18 161.463C1330.3 157.455 1364.85 143.169 1382.13 136.027L1399.41 128.884"/>
<path stroke-linecap="round" stroke-width="2" stroke="white" d="M570.625 -0.968488L579.66 5.06417C588.694 11.0968 606.762 23.1621 630.447 26.2493C654.131 29.3365 683.432 23.4456 706.642 27.291C729.852 31.1365 746.972 44.7182 765.94 55.3446C784.909 65.9709 805.726 73.6418 826.895 80.7504C848.064 87.859 869.585 94.4053 895.66 93.6706C921.735 92.9359 952.365 84.9201 980.557 80.8014C1008.75 76.6827 1034.5 76.4611 1055.21 84.302C1075.92 92.1429 1091.59 108.046 1111.99 116.385C1132.39 124.724 1157.52 125.497 1180.68 129.421C1203.85 133.345 1225.04 140.419 1246.48 147.09C1267.92 153.761 1289.61 160.03 1317.74 156.022C1345.86 152.013 1380.41 137.728 1397.69 130.585L1414.96 123.442"/>
<path stroke-linecap="round" stroke-width="2" stroke="white" d="M586.182 -6.40989L595.216 -0.37724C604.251 5.65541 622.319 17.7207 646.003 20.8079C669.688 23.8951 698.988 18.0042 722.198 21.8496C745.409 25.6951 762.528 39.2768 781.497 49.9032C800.466 60.5295 821.283 68.2004 842.452 75.309C863.621 82.4176 885.141 88.9639 911.216 88.2292C937.292 87.4945 967.921 79.4787 996.113 75.36C1024.31 71.2413 1050.06 71.0197 1070.77 78.8606C1091.48 86.7015 1107.15 102.605 1127.55 110.944C1147.95 119.282 1173.08 120.056 1196.24 123.979C1219.4 127.903 1240.59 134.977 1262.03 141.649C1283.48 148.32 1305.17 154.589 1333.29 150.58C1361.42 146.572 1395.97 132.287 1413.24 125.144L1430.52 118.001"/>
<path stroke-linecap="round" stroke-width="2" stroke="white" d="M601.74 -11.8503L610.774 -5.81767C619.808 0.214985 637.877 12.2803 661.561 15.3675C685.245 18.4547 714.546 12.5638 737.756 16.4092C760.966 20.2546 778.086 33.8364 797.055 44.4627C816.023 55.0891 836.84 62.7599 858.009 69.8685C879.178 76.9771 900.699 83.5235 926.774 82.7888C952.849 82.0541 983.479 74.0383 1011.67 69.9196C1039.86 65.8009 1065.62 65.5792 1086.33 73.4202C1107.04 81.2611 1122.71 97.1646 1143.11 105.503C1163.51 113.842 1188.64 114.615 1211.8 118.539C1234.96 122.463 1256.15 129.537 1277.59 136.208C1299.03 142.88 1320.73 149.148 1348.85 145.14C1376.97 141.132 1411.53 126.846 1428.8 119.703L1446.08 112.561"/>
<path stroke-linecap="round" stroke="white" d="M303.319 -13.3844L293.334 -11.5792C283.349 -9.77391 263.379 -6.16339 258.458 1.94259C253.537 10.0486 263.665 22.65 257.473 30.3763C251.281 38.1026 228.77 40.9539 211.212 45.2849C193.654 49.6159 181.049 55.4268 169.388 61.5192C157.726 67.6116 147.007 73.9856 148.492 84.0052C149.978 94.0249 163.667 107.69 170.825 119.404C177.982 131.118 178.608 140.881 165.718 146.607C152.829 152.333 126.426 154.021 112.702 159.498C98.9792 164.974 97.9363 174.239 91.613 181.926C85.2898 189.613 73.6862 195.723 62.7574 202.034C51.8287 208.345 41.5747 214.858 48.5473 226.517C55.5198 238.176 79.7189 254.981 91.8184 263.383L103.918 271.785"/>
<path stroke-linecap="round" stroke="white" d="M312.56 -6.08073L302.575 -4.27546C292.59 -2.4702 272.62 1.14032 267.699 9.2463C262.778 17.3523 272.907 29.9537 266.715 37.68C260.523 45.4064 238.011 48.2576 220.453 52.5886C202.895 56.9197 190.291 62.7305 178.629 68.8229C166.967 74.9153 156.248 81.2893 157.733 91.3089C159.219 101.329 172.909 114.994 180.066 126.708C187.224 138.422 187.849 148.185 174.96 153.911C162.07 159.636 135.667 161.325 121.944 166.802C108.22 172.278 107.177 181.543 100.854 189.23C94.531 196.917 82.9274 203.026 71.9987 209.338C61.0699 215.649 50.8159 222.162 57.7885 233.821C64.761 245.48 88.9601 262.284 101.06 270.687L113.159 279.089"/>
<path stroke-linecap="round" stroke="white" d="M321.801 1.22299L311.816 3.02825C301.831 4.83351 281.861 8.44404 276.94 16.55C272.019 24.656 282.147 37.2574 275.955 44.9837C269.763 52.7101 247.251 55.5613 229.693 59.8923C212.135 64.2234 199.531 70.0342 187.869 76.1266C176.208 82.219 165.488 88.593 166.974 98.6127C168.459 108.632 182.149 122.298 189.306 134.012C196.464 145.726 197.089 155.489 184.2 161.214C171.311 166.94 144.907 168.629 131.184 174.105C117.461 179.582 116.418 188.846 110.094 196.533C103.771 204.22 92.1677 210.33 81.2389 216.642C70.3101 222.953 60.0562 229.466 67.0287 241.125C74.0013 252.783 98.2004 269.588 110.3 277.99L122.399 286.393"/>
<path stroke-linecap="round" stroke="white" d="M331.043 8.5267L321.058 10.332C311.073 12.1372 291.103 15.7477 286.182 23.8537C281.261 31.9597 291.389 44.5611 285.197 52.2875C279.005 60.0138 256.493 62.865 238.935 67.196C221.377 71.5271 208.773 77.3379 197.111 83.4303C185.45 89.5228 174.731 95.8967 176.216 105.916C177.701 115.936 191.391 129.601 198.548 141.315C205.706 153.03 206.331 162.792 193.442 168.518C180.553 174.244 154.149 175.932 140.426 181.409C126.703 186.886 125.66 196.15 119.337 203.837C113.013 211.524 101.41 217.634 90.4811 223.945C79.5523 230.257 69.2984 236.769 76.2709 248.428C83.2435 260.087 107.443 276.892 119.542 285.294L131.642 293.697"/>
<path stroke-linecap="round" stroke="white" d="M340.283 15.8304L330.298 17.6357C320.313 19.4409 300.343 23.0515 295.422 31.1574C290.501 39.2634 300.629 51.8648 294.437 59.5912C288.245 67.3175 265.733 70.1687 248.175 74.4997C230.617 78.8308 218.013 84.6417 206.352 90.7341C194.69 96.8265 183.971 103.2 185.456 113.22C186.941 123.24 200.631 136.905 207.789 148.619C214.946 160.333 215.571 170.096 202.682 175.822C189.793 181.547 163.39 183.236 149.666 188.713C135.943 194.189 134.9 203.454 128.577 211.141C122.254 218.828 110.65 224.938 99.7213 231.249C88.7925 237.56 78.5386 244.073 85.5111 255.732C92.4837 267.391 116.683 284.196 128.782 292.598L140.882 301"/>
<path stroke-linecap="round" stroke="white" d="M349.523 23.1351L339.538 24.9404C329.553 26.7456 309.583 30.3561 304.662 38.4621C299.741 46.5681 309.869 59.1695 303.678 66.8959C297.486 74.6222 274.974 77.4734 257.416 81.8044C239.858 86.1355 227.254 91.9463 215.592 98.0387C203.93 104.131 193.211 110.505 194.696 120.525C196.182 130.544 209.871 144.21 217.029 155.924C224.186 167.638 224.812 177.401 211.923 183.126C199.033 188.852 172.63 190.541 158.907 196.017C145.183 201.494 144.14 210.758 137.817 218.445C131.494 226.133 119.89 232.242 108.962 238.554C98.0328 244.865 87.7788 251.378 94.7514 263.037C101.724 274.696 125.923 291.5 138.023 299.903L150.122 308.305"/>
<path stroke-linecap="round" stroke="white" d="M358.766 30.4388L348.781 32.2441C338.796 34.0493 318.825 37.6599 313.905 45.7658C308.984 53.8718 319.112 66.4732 312.92 74.1996C306.728 81.9259 284.216 84.7771 266.658 89.1081C249.1 93.4392 236.496 99.2501 224.834 105.342C213.172 111.435 202.453 117.809 203.939 127.828C205.424 137.848 219.114 151.514 226.271 163.228C233.429 174.942 234.054 184.704 221.165 190.43C208.276 196.156 181.872 197.845 168.149 203.321C154.425 208.798 153.383 218.062 147.059 225.749C140.736 233.436 129.132 239.546 118.204 245.857C107.275 252.169 97.021 258.682 103.994 270.34C110.966 281.999 135.165 298.804 147.265 307.206L159.364 315.609"/>
</g>
<g filter="url(#filter1_b_239_7715)">
<rect fill="url(#paint1_linear_239_7715)" rx="16" height="230" width="1165" y="30" x="44"/>
</g>
<g filter="url(#filter2_b_239_7715)">
<rect fill="url(#paint2_linear_239_7715)" rx="16" height="230" width="1165" y="30" x="44"/>
</g>
<defs>
<filter color-interpolation-filters="sRGB" filterUnits="userSpaceOnUse" height="338" width="1273" y="0" x="0" id="filter0_d_239_7715">
<feFlood result="BackgroundImageFix" flood-opacity="0"/>
<feColorMatrix result="hardAlpha" values="0 0 0 0 0 0 0 0 0 0 0 0 0 0 0 0 0 0 127 0" type="matrix" in="SourceAlpha"/>
<feOffset dy="24" dx="10"/>
<feGaussianBlur stdDeviation="27"/>
<feComposite operator="out" in2="hardAlpha"/>
<feColorMatrix values="0 0 0 0 0 0 0 0 0 0 0 0 0 0 0 0 0 0 0.03 0" type="matrix"/>
<feBlend result="effect1_dropShadow_239_7715" in2="BackgroundImageFix" mode="normal"/>
<feBlend result="shape" in2="effect1_dropShadow_239_7715" in="SourceGraphic" mode="normal"/>
</filter>
<filter color-interpolation-filters="sRGB" filterUnits="userSpaceOnUse" height="246" width="1181" y="22" x="36" id="filter1_b_239_7715">
<feFlood result="BackgroundImageFix" flood-opacity="0"/>
<feGaussianBlur stdDeviation="4" in="BackgroundImageFix"/>
<feComposite result="effect1_backgroundBlur_239_7715" operator="in" in2="SourceAlpha"/>
<feBlend result="shape" in2="effect1_backgroundBlur_239_7715" in="SourceGraphic" mode="normal"/>
</filter>
<filter color-interpolation-filters="sRGB" filterUnits="userSpaceOnUse" height="246" width="1181" y="22" x="36" id="filter2_b_239_7715">
<feFlood result="BackgroundImageFix" flood-opacity="0"/>
<feGaussianBlur stdDeviation="4" in="BackgroundImageFix"/>
<feComposite result="effect1_backgroundBlur_239_7715" operator="in" in2="SourceAlpha"/>
<feBlend result="shape" in2="effect1_backgroundBlur_239_7715" in="SourceGraphic" mode="normal"/>
</filter>
<linearGradient gradientUnits="userSpaceOnUse" y2="864.318" x2="969.522" y1="-19.9132" x1="-133.189" id="paint0_linear_239_7715">
<stop stop-color="#0841D4"/>
<stop stop-color="#FA4758" offset="1"/>
</linearGradient>
<linearGradient gradientUnits="userSpaceOnUse" y2="735.234" x2="766.751" y1="30" x1="-31.3233" id="paint1_linear_239_7715">
<stop stop-color="#000B27"/>
<stop stop-opacity="0" stop-color="#0841D4" offset="1"/>
</linearGradient>
<linearGradient gradientUnits="userSpaceOnUse" y2="735.234" x2="766.751" y1="30" x1="-31.3233" id="paint2_linear_239_7715">
<stop stop-color="#000B27"/>
<stop stop-opacity="0" stop-color="#0841D4" offset="1"/>
</linearGradient>
</defs>
</svg>