<svg width="22" height="23" viewBox="0 0 22 23" fill="none" xmlns="http://www.w3.org/2000/svg">
<path d="M18.2617 5.30365C16.9586 5.30365 15.8984 6.36377 15.8984 7.66693C15.8984 8.18797 16.0732 8.66574 16.3599 9.05687L14.7443 11.2105L12.633 7.04443C13.0812 6.61407 13.3633 6.01221 13.3633 5.34326C13.3633 4.0401 12.3032 2.97998 11 2.97998C9.69684 2.97998 8.63672 4.0401 8.63672 5.34326C8.63672 6.01221 8.91883 6.61407 9.36702 7.04443L7.25568 11.2105L5.64007 9.05687C5.92679 8.66574 6.10156 8.18797 6.10156 7.66693C6.10156 6.36377 5.04144 5.30365 3.73828 5.30365C2.43512 5.30365 1.375 6.36377 1.375 7.66693C1.375 8.82843 2.21877 9.79153 3.32458 9.98838L4.12567 16.6642C4.16696 17.0099 4.46002 17.2698 4.80814 17.2698H17.1919C17.54 17.2698 17.833 17.0099 17.8743 16.6642L18.6754 9.98838C19.7812 9.79153 20.625 8.82843 20.625 7.66693C20.625 6.36377 19.5649 5.30365 18.2617 5.30365Z" fill="#EC7200"/>
<path d="M17.1918 20.02C17.5715 20.02 17.8793 19.7125 17.8793 19.3325C17.8793 18.9525 17.5715 18.645 17.1918 18.645H4.80811C4.42844 18.645 4.12061 18.9525 4.12061 19.3325C4.12061 19.7125 4.42844 20.02 4.80811 20.02H17.1918Z" fill="#EC7200"/>
</svg>
