<svg width="27" height="27" viewBox="0 0 27 27" fill="none" xmlns="http://www.w3.org/2000/svg">
<rect x="1.14161" y="0.735847" width="25.1959" height="25.1959" rx="4.39464" stroke="white" stroke-width="0.585952"/>
<rect x="0.848633" y="0.442871" width="25.7819" height="25.7819" rx="7.03142" fill="#3DCAB1"/>
<g clip-path="url(#clip0_45_20680)">
<path d="M13.1534 8.646H9.05179C8.74098 8.646 8.4429 8.76946 8.22313 8.98924C8.00335 9.20901 7.87988 9.50709 7.87988 9.8179V18.0212C7.87988 18.332 8.00335 18.6301 8.22313 18.8499C8.4429 19.0697 8.74098 19.1931 9.05179 19.1931H17.2551C17.5659 19.1931 17.864 19.0697 18.0838 18.8499C18.3035 18.6301 18.427 18.332 18.427 18.0212V13.9196" stroke="white" stroke-width="1.1719" stroke-linecap="round" stroke-linejoin="round"/>
<path d="M17.548 7.76738C17.7811 7.53428 18.0973 7.40332 18.4269 7.40332C18.7566 7.40332 19.0727 7.53428 19.3059 7.76738C19.539 8.00049 19.6699 8.31665 19.6699 8.64631C19.6699 8.97597 19.539 9.29213 19.3059 9.52524L13.7393 15.0918L11.3955 15.6777L11.9815 13.3339L17.548 7.76738Z" stroke="white" stroke-width="1.1719" stroke-linecap="round" stroke-linejoin="round"/>
</g>
<defs>
<clipPath id="clip0_45_20680">
<rect width="14.0628" height="14.0628" fill="white" transform="translate(6.70801 6.30225)"/>
</clipPath>
</defs>
</svg>
