<svg width="21" height="20" viewBox="0 0 21 20" fill="none" xmlns="http://www.w3.org/2000/svg">
<path d="M16.1128 0.780979L6.21941 10.6744C5.82888 11.0649 5.52513 11.5097 5.30817 12.0087C5.09121 12.5077 5.00443 13.0176 5.04782 13.5383V14.6448C5.04782 14.8617 5.12376 15.0461 5.27563 15.198C5.4275 15.3499 5.61192 15.4258 5.82888 15.4258H6.93538C7.45608 15.4692 7.96594 15.3824 8.46495 15.1655C8.96396 14.9485 9.40873 14.6448 9.79925 14.2542L19.6927 4.36083C20.2134 3.84012 20.4737 3.23263 20.4737 2.53836C20.4737 1.84409 20.2242 1.25829 19.7252 0.780979C19.2262 0.303665 18.6295 0.0650101 17.9353 0.0650101C17.241 0.0650101 16.6335 0.303665 16.1128 0.780979ZM18.5862 3.18924L8.62767 13.1477C8.15035 13.5816 7.58626 13.7986 6.93538 13.7986H6.67502V13.5383C6.67502 12.8874 6.89198 12.3233 7.3259 11.846L17.2844 1.88748C17.458 1.71391 17.6749 1.62712 17.9353 1.62712C18.1956 1.62712 18.4126 1.71391 18.5862 1.88748C18.7597 2.06105 18.8465 2.27801 18.8465 2.53836C18.8465 2.79871 18.7597 3.01567 18.5862 3.18924ZM19.6927 7.28979C19.4323 7.28979 19.2262 7.37658 19.0743 7.55015C18.9224 7.72372 18.8465 7.91898 18.8465 8.13594V12.1714H15.5921C14.8978 12.1714 14.3229 12.4101 13.8673 12.8874C13.4116 13.3647 13.1838 13.9505 13.1838 14.6448V17.8992H5.04782C4.35355 17.8992 3.76775 17.6605 3.29044 17.1832C2.81313 16.7059 2.57447 16.1418 2.57447 15.4909V4.03539C2.57447 3.38451 2.81313 2.82041 3.29044 2.34309C3.76775 1.86578 4.33185 1.62712 4.98273 1.62712H12.4028C12.6197 1.62712 12.8042 1.55119 12.956 1.39932C13.1079 1.24744 13.1838 1.05218 13.1838 0.813522C13.1838 0.574867 13.1079 0.379602 12.956 0.22773C12.8042 0.0758572 12.6197 -7.82013e-05 12.4028 -7.82013e-05H5.04782C4.31015 -7.82013e-05 3.62673 0.184338 2.99754 0.553171C2.36836 0.922003 1.86935 1.42101 1.50051 2.0502C1.13168 2.67938 0.947266 3.34111 0.947266 4.03539V15.4258C0.947266 16.1635 1.13168 16.8469 1.50051 17.4761C1.86935 18.1053 2.36836 18.6043 2.99754 18.9731C3.62673 19.342 4.28846 19.5264 4.98273 19.5264H14.2252C14.7893 19.5264 15.3209 19.4287 15.8199 19.2335C16.3189 19.0382 16.742 18.7453 17.0891 18.3548L19.3021 16.1418C19.6927 15.7946 19.9855 15.3716 20.1808 14.8726C20.3761 14.3736 20.4737 13.842 20.4737 13.2779V8.13594C20.4737 7.91898 20.3978 7.72372 20.2459 7.55015C20.094 7.37658 19.9096 7.28979 19.6927 7.28979ZM15.9826 17.1832C15.6355 17.5303 15.2233 17.7473 14.746 17.8341V14.6448C14.7893 14.4278 14.887 14.2434 15.0389 14.0915C15.1907 13.9396 15.3751 13.8637 15.5921 13.8637H18.7814C18.6946 14.2976 18.4777 14.6881 18.1305 15.0353L15.9826 17.1832Z" fill="#282C3F" fill-opacity="0.5"/>
</svg>
