<svg width="42" height="42" viewBox="0 0 42 42" fill="none" xmlns="http://www.w3.org/2000/svg">
<g clip-path="url(#clip0_43_109004)">
<path fill-rule="evenodd" clip-rule="evenodd" d="M0 21C0 15.4305 2.21249 10.089 6.15076 6.15076C10.089 2.21249 15.4305 0 21 0C26.5695 0 31.911 2.21249 35.8492 6.15076C39.7875 10.089 42 15.4305 42 21C42 26.5695 39.7875 31.911 35.8492 35.8492C31.911 39.7875 26.5695 42 21 42C15.4305 42 10.089 39.7875 6.15076 35.8492C2.21249 31.911 0 26.5695 0 21ZM18.24 14.5416C15.9995 16.3843 14.5023 18.9761 14.0256 21.8376L12.4488 31.3152C12.0864 33.5016 14.6304 34.9704 16.3416 33.5616L23.76 27.4584C26.0005 25.6157 27.4977 23.0239 27.9744 20.1624L29.5488 10.6848C29.9136 8.4984 27.3696 7.0296 25.6584 8.4384L18.24 14.5416Z" fill="black"/>
<path d="M18.375 21C18.375 20.3038 18.6516 19.6361 19.1438 19.1438C19.6361 18.6516 20.3038 18.375 21 18.375C21.6962 18.375 22.3639 18.6516 22.8562 19.1438C23.3484 19.6361 23.625 20.3038 23.625 21C23.625 21.6962 23.3484 22.3639 22.8562 22.8562C22.3639 23.3484 21.6962 23.625 21 23.625C20.3038 23.625 19.6361 23.3484 19.1438 22.8562C18.6516 22.3639 18.375 21.6962 18.375 21Z" fill="black"/>
</g>
<defs>
<clipPath id="clip0_43_109004">
<rect width="42" height="42" fill="white"/>
</clipPath>
</defs>
</svg>
