<svg width="42" height="41" viewBox="0 0 42 41" fill="none" xmlns="http://www.w3.org/2000/svg">
<path fill-rule="evenodd" clip-rule="evenodd" d="M12.0156 8.78971C12.8467 8.23439 13.8238 7.93799 14.8234 7.93799C15.4651 7.93799 15.9854 8.45823 15.9854 9.09997C15.9854 9.74171 15.4651 10.262 14.8234 10.262C14.2835 10.262 13.7557 10.4221 13.3067 10.722C12.8578 11.022 12.5079 11.4483 12.3013 11.9472C12.0947 12.446 12.0406 12.9949 12.146 13.5244C12.2513 14.054 12.5113 14.5404 12.8931 14.9222C13.2748 15.3039 13.7613 15.5639 14.2908 15.6693C14.8204 15.7746 15.3692 15.7205 15.8681 15.5139C16.3669 15.3073 16.7932 14.9574 17.0932 14.5085C17.3932 14.0595 17.5533 13.5318 17.5533 12.9918C17.5533 12.3501 18.0735 11.8299 18.7152 11.8299C19.357 11.8299 19.8772 12.3501 19.8772 12.9918C19.8772 13.9914 19.5808 14.9685 19.0255 15.7996C18.4702 16.6307 17.6809 17.2785 16.7574 17.661C15.8339 18.0435 14.8178 18.1436 13.8374 17.9486C12.8571 17.7536 11.9566 17.2722 11.2498 16.5654C10.543 15.8586 10.0616 14.9581 9.86664 13.9778C9.67164 12.9974 9.77172 11.9813 10.1542 11.0578C10.5367 10.1343 11.1845 9.34504 12.0156 8.78971Z" fill="#8D98AA"/>
<path fill-rule="evenodd" clip-rule="evenodd" d="M40.0707 14.6765C40.7032 14.6765 41.2159 15.1999 41.2159 15.8456V25.6348C41.2159 30.6426 40.2473 34.4523 37.7837 36.9812C35.3185 39.5118 31.6032 40.5073 26.7215 40.5073H15.2796C10.3994 40.5073 6.68421 39.5122 4.21866 36.9819C1.75463 34.4532 0.785156 30.6436 0.785156 25.6348V21.6989C0.785156 21.0532 1.29791 20.5298 1.93042 20.5298C2.56293 20.5298 3.07568 21.0532 3.07568 21.6989V25.6348C3.07568 30.4153 4.01498 33.4574 5.84261 35.333C7.66874 37.2071 10.6281 38.1691 15.2796 38.1691H26.7215C31.3745 38.1691 34.3338 37.2067 36.1595 35.3325C37.9868 33.4567 38.9254 30.4147 38.9254 25.6348V15.8456C38.9254 15.1999 39.4382 14.6765 40.0707 14.6765Z" fill="#8D98AA"/>
<path fill-rule="evenodd" clip-rule="evenodd" d="M4.26632 3.53043C6.76466 1.05175 10.5293 0.0766602 15.478 0.0766602H23.2148C23.8527 0.0766602 24.3698 0.589691 24.3698 1.22255C24.3698 1.8554 23.8527 2.36843 23.2148 2.36843H15.478C10.7572 2.36843 7.75293 3.31231 5.89971 5.15095C4.04648 6.98959 3.09511 9.97024 3.09511 14.6539C3.09511 15.2867 2.57801 15.7997 1.94013 15.7997C1.30226 15.7997 0.785156 15.2867 0.785156 14.6539C0.785156 9.74411 1.76799 6.0091 4.26632 3.53043Z" fill="#8D98AA"/>
<path fill-rule="evenodd" clip-rule="evenodd" d="M26.6162 6.81497C26.6162 6.19471 27.1544 5.69189 27.8184 5.69189H38.891C39.5549 5.69189 40.0931 6.19471 40.0931 6.81497C40.0931 7.43523 39.5549 7.93805 38.891 7.93805H27.8184C27.1544 7.93805 26.6162 7.43523 26.6162 6.81497Z" fill="#8D98AA"/>
<path fill-rule="evenodd" clip-rule="evenodd" d="M33.3545 0.076416C33.9748 0.076416 34.4776 0.614638 34.4776 1.27857V12.3512C34.4776 13.0151 33.9748 13.5533 33.3545 13.5533C32.7343 13.5533 32.2314 13.0151 32.2314 12.3512V1.27857C32.2314 0.614638 32.7343 0.076416 33.3545 0.076416Z" fill="#8D98AA"/>
<path fill-rule="evenodd" clip-rule="evenodd" d="M32.287 22.1729L24.3386 29.0534L24.3175 29.0712C23.3512 29.8679 22.1387 30.3035 20.8874 30.3035C19.6361 30.3035 18.4236 29.8679 17.4573 29.0712C17.4469 29.0626 17.4366 29.0538 17.4265 29.0449L16.8129 28.5016C16.2991 28.0871 15.668 27.8448 15.009 27.8096C14.3458 27.7742 13.6886 27.9501 13.1315 28.3121L3.70199 34.6942C3.17565 35.0505 2.4608 34.9117 2.10532 34.3842C1.74984 33.8568 1.88834 33.1404 2.41468 32.7841L11.8678 26.386C12.8352 25.7537 13.9782 25.4463 15.1315 25.5079C16.2848 25.5696 17.3886 25.9972 18.2833 26.729C18.295 26.7385 18.3064 26.7482 18.3176 26.7582L18.933 27.3031C19.4853 27.7528 20.1754 27.9985 20.8874 27.9985C21.6014 27.9985 22.2934 27.7515 22.8464 27.2993L30.7948 20.4188L30.8159 20.401C31.7822 19.6043 32.9947 19.1687 34.246 19.1687C35.4973 19.1687 36.7098 19.6043 37.6761 20.401L37.6973 20.4189L40.8177 23.1203C41.2983 23.5363 41.3513 24.2641 40.9361 24.7458C40.5209 25.2274 39.7947 25.2806 39.3141 24.8645L36.205 22.1728C35.6519 21.7207 34.96 21.4736 34.246 21.4736C33.532 21.4736 32.84 21.7207 32.287 22.1729Z" fill="#8D98AA"/>
</svg>
