<svg width="19" height="19" viewBox="0 0 19 19" fill="none" xmlns="http://www.w3.org/2000/svg">
<path d="M9.33561 16.6145C13.0836 16.6145 16.1219 13.5761 16.1219 9.82816C16.1219 6.0802 13.0836 3.04187 9.33561 3.04187C5.58764 3.04187 2.54932 6.0802 2.54932 9.82816C2.54932 13.5761 5.58764 16.6145 9.33561 16.6145Z" stroke="#495AFF" stroke-width="1.35726" stroke-miterlimit="10"/>
<path d="M2.93555 7.56604H15.7351" stroke="#495AFF" stroke-width="1.35726" stroke-linecap="round" stroke-linejoin="round"/>
<path d="M2.93555 12.0902H15.7351" stroke="#495AFF" stroke-width="1.35726" stroke-linecap="round" stroke-linejoin="round"/>
<path d="M9.33543 16.4322C10.8971 16.4322 12.1631 13.4755 12.1631 9.82812C12.1631 6.18076 10.8971 3.224 9.33543 3.224C7.77378 3.224 6.50781 6.18076 6.50781 9.82812C6.50781 13.4755 7.77378 16.4322 9.33543 16.4322Z" stroke="#495AFF" stroke-width="1.35726" stroke-miterlimit="10"/>
</svg>
