<svg width="18" height="21" viewBox="0 0 18 21" fill="none" xmlns="http://www.w3.org/2000/svg">
<path d="M9.59137 4.13293L15.2993 8.14633H11.3807C11.3954 8.20693 11.4191 8.26201 11.4308 8.32505C11.4637 8.5193 11.4894 8.73294 11.4894 8.95528C11.4894 11.8217 8.88485 11.4981 8.88485 11.4981V12.2287C8.88485 12.5249 8.53951 12.4223 8.49884 13.0236C8.6715 13.0236 12.1067 12.9123 12.1067 15.5194C12.1067 18.1361 9.07437 18.0074 9.07437 18.0074C9.07437 18.0074 5.5724 18.1836 5.5724 14.9472C5.57097 13.0135 7.57771 12.3841 7.57771 11.6079C7.57771 10.8221 6.06572 10.5912 6.06572 8.75148C6.06572 7.94719 6.11465 7.37436 6.435 6.9674C6.45998 6.9393 6.47624 6.92001 6.5005 6.90155C6.50601 6.89577 6.51302 6.89157 6.51862 6.88587H6.43082L4.95367 5.63953V7.34365C4.95408 7.37474 4.95127 7.40579 4.94531 7.43615C5.05731 7.50665 5.15034 7.60982 5.2146 7.73481C5.27885 7.85979 5.31195 8.00196 5.31042 8.14633V8.94901C5.31175 9.05538 5.29429 9.16098 5.25903 9.25968C5.22377 9.35839 5.17143 9.44822 5.10504 9.52397C5.03866 9.59972 4.95955 9.65987 4.87232 9.70093C4.78509 9.74198 4.69148 9.76312 4.59692 9.76312C4.50237 9.76312 4.40875 9.74198 4.32152 9.70093C4.23429 9.65987 4.15519 9.59972 4.0888 9.52397C4.02242 9.44822 3.97007 9.35839 3.93482 9.25968C3.89956 9.16098 3.88209 9.05538 3.88343 8.94901V8.14633C3.88189 8.00196 3.915 7.85979 3.97925 7.73481C4.04351 7.60982 4.13653 7.50665 4.24854 7.43615C4.24258 7.40579 4.23977 7.37474 4.24018 7.34365V5.03595L3.16994 4.13293H9.59137ZM9.09806 6.5833C8.89271 6.57284 8.68601 6.62897 8.48908 6.75418C8.34139 6.83766 8.20282 6.95686 8.07938 7.10536C7.82466 7.39191 7.61036 7.80797 7.49549 8.2984C7.22436 9.46309 7.57659 10.5831 8.30792 10.7958C9.0314 11.0262 9.83776 10.2663 10.1167 9.11049C10.2402 8.54701 10.2231 8.00209 10.0833 7.56784C10.082 7.56224 10.0791 7.55772 10.0777 7.55216C10.0753 7.55084 10.0717 7.54716 10.0694 7.54589C10.0293 7.3742 9.96375 7.22017 9.88402 7.09282C9.73736 6.85178 9.54394 6.68853 9.30291 6.61622C9.23513 6.59776 9.16651 6.58679 9.09806 6.5833ZM8.81935 13.5127C7.61141 13.4107 6.58306 14.1591 6.50886 15.176C6.45892 16.1842 7.38824 17.081 8.60475 17.1733C9.81269 17.2656 10.8561 16.5275 10.9138 15.5194C10.9716 14.5024 10.0359 13.6146 8.81935 13.5127Z" fill="#495AFF"/>
</svg>
