<svg width="19" height="19" viewBox="0 0 19 19" fill="none" xmlns="http://www.w3.org/2000/svg">
<path d="M18.3701 5.96468C18.3277 5.00313 18.1722 4.34207 17.9494 3.76925C17.7196 3.16122 17.366 2.61685 16.9027 2.16431C16.4501 1.70473 15.902 1.34762 15.3009 1.12142C14.7247 0.898674 14.0669 0.743179 13.1052 0.700784C12.1363 0.654798 11.8287 0.644165 9.37124 0.644165C6.91379 0.644165 6.6062 0.654798 5.64087 0.697193C4.67913 0.739589 4.01794 0.895221 3.44516 1.11783C2.83687 1.34762 2.2924 1.70114 1.83977 2.16431C1.38011 2.61685 1.02306 3.16481 0.796683 3.7658C0.573893 4.34207 0.418369 4.99954 0.375966 5.96109C0.329971 6.92983 0.319336 7.23736 0.319336 9.69435C0.319336 12.1513 0.329971 12.4589 0.372374 13.424C0.414778 14.3856 0.57044 15.0466 0.79323 15.6194C1.02306 16.2275 1.38011 16.7718 1.83977 17.2244C2.2924 17.684 2.84046 18.0411 3.44156 18.2673C4.01794 18.49 4.67554 18.6455 5.63742 18.6879C6.60261 18.7304 6.91034 18.7409 9.36779 18.7409C11.8252 18.7409 12.1328 18.7304 13.0982 18.6879C14.0599 18.6455 14.7211 18.49 15.2939 18.2673C16.5103 17.7971 17.4721 16.8355 17.9424 15.6194C18.165 15.0432 18.3207 14.3856 18.3631 13.424C18.4055 12.4589 18.4161 12.1513 18.4161 9.69435C18.4161 7.23736 18.4125 6.92983 18.3701 5.96468ZM16.7401 13.3533C16.7012 14.2371 16.5527 14.7144 16.429 15.0325C16.1248 15.8209 15.499 16.4466 14.7105 16.7507C14.3922 16.8744 13.9114 17.0229 13.0309 17.0617C12.0762 17.1042 11.7899 17.1147 9.37484 17.1147C6.95979 17.1147 6.66987 17.1042 5.71863 17.0617C4.83465 17.0229 4.35731 16.8744 4.03908 16.7507C3.64667 16.6057 3.28949 16.3759 2.99958 16.0754C2.69903 15.782 2.46919 15.4285 2.32416 15.0361C2.20041 14.718 2.05193 14.2371 2.01312 13.3569C1.97057 12.4024 1.96008 12.116 1.96008 9.70139C1.96008 7.2868 1.97057 6.99694 2.01312 6.04602C2.05193 5.16221 2.20041 4.68496 2.32416 4.36679C2.46919 3.97432 2.69903 3.61735 3.00317 3.32735C3.29654 3.02685 3.65013 2.79706 4.04267 2.6522C4.3609 2.52847 4.84184 2.38002 5.72222 2.34107C6.67691 2.29868 6.96338 2.28805 9.37829 2.28805C11.7969 2.28805 12.0833 2.29868 13.0345 2.34107C13.9185 2.38002 14.3958 2.52847 14.714 2.6522C15.1064 2.79706 15.4636 3.02685 15.7535 3.32735C16.0541 3.6208 16.2839 3.97432 16.429 4.36679C16.5527 4.68496 16.7012 5.16567 16.7401 6.04602C16.7825 7.00053 16.7932 7.2868 16.7932 9.70139C16.7932 12.116 16.7825 12.3988 16.7401 13.3533Z" fill="#495AFF"/>
<path d="M9.3714 5.04529C6.80441 5.04529 4.72168 7.12748 4.72168 9.69411C4.72168 12.2607 6.80441 14.3429 9.3714 14.3429C11.9385 14.3429 14.0211 12.2607 14.0211 9.69411C14.0211 7.12748 11.9385 5.04529 9.3714 5.04529ZM9.3714 12.7097C7.70607 12.7097 6.35524 11.3593 6.35524 9.69411C6.35524 8.02896 7.70607 6.67854 9.3714 6.67854C11.0369 6.67854 12.3876 8.02896 12.3876 9.69411C12.3876 11.3593 11.0369 12.7097 9.3714 12.7097V12.7097Z" fill="#495AFF"/>
<path d="M15.2898 4.86202C15.2898 5.46136 14.8037 5.94732 14.2042 5.94732C13.6047 5.94732 13.1187 5.46136 13.1187 4.86202C13.1187 4.26255 13.6047 3.77673 14.2042 3.77673C14.8037 3.77673 15.2898 4.26255 15.2898 4.86202V4.86202Z" fill="#495AFF"/>
</svg>
