<svg width="19" height="19" viewBox="0 0 19 19" fill="none" xmlns="http://www.w3.org/2000/svg">
<path d="M18.4436 18.741V18.7402H18.4482V12.1033C18.4482 8.85645 17.7492 6.35535 13.9534 6.35535C12.1287 6.35535 10.9041 7.35669 10.4042 8.30601H10.3514V6.65846H6.75244V18.7402H10.5V12.7578C10.5 11.1826 10.7986 9.65949 12.7492 9.65949C14.6712 9.65949 14.6999 11.4571 14.6999 12.8588V18.741H18.4436Z" fill="#495AFF"/>
<path d="M0.650391 6.65918H4.40242V18.7409H0.650391V6.65918Z" fill="#495AFF"/>
<path d="M2.52466 0.644165C1.32501 0.644165 0.351562 1.61761 0.351562 2.81727C0.351562 4.01692 1.32501 5.01073 2.52466 5.01073C3.72432 5.01073 4.69776 4.01692 4.69776 2.81727C4.69701 1.61761 3.72356 0.644165 2.52466 0.644165V0.644165Z" fill="#495AFF"/>
</svg>
