<svg width="155" height="25" viewBox="0 0 155 25" fill="none" xmlns="http://www.w3.org/2000/svg">
<path d="M21.2911 9.70771C23.114 7.90831 23.1594 5.00579 21.3925 3.22476C19.6255 1.44372 16.7154 1.4586 14.8925 3.25801C13.0696 5.05741 13.0242 7.95993 14.7911 9.74097C16.558 11.522 19.4681 11.5071 21.2911 9.70771Z" fill="#495AFF"/>
<path d="M9.69982 20.7893C11.5224 18.9896 11.5673 16.087 9.80008 14.3063C8.03286 12.5256 5.12272 12.541 3.30012 14.3407C1.47751 16.1404 1.43262 19.0429 3.19985 20.8237C4.96708 22.6044 7.87722 22.589 9.69982 20.7893Z" fill="#495AFF"/>
<path d="M21.3113 13.3247C21.3113 13.3247 21.2996 13.313 21.2944 13.3078C20.4996 12.5215 19.4163 12.0906 18.2848 12.0828C18.2273 12.0828 18.1699 12.0841 18.1112 12.088C18.0055 12.0945 17.8997 12.0984 17.794 12.0984C17.5917 12.0984 17.3934 12.0867 17.1963 12.0659C16.0256 11.9838 14.9332 11.4904 14.1293 10.6768C13.0421 9.67306 12.3752 8.22411 12.4091 6.61372C12.4587 4.25868 13.9883 2.25123 16.0935 1.47403C16.0843 1.43888 16.0556 1.40894 16.0099 1.40894H5.49717C3.33066 2.10933 1.72145 4.23525 1.66924 6.74911C1.62617 8.84769 2.6781 10.6755 4.27035 11.6297C4.29646 11.6454 4.32517 11.6623 4.35649 11.6779C4.61099 11.8159 4.88376 11.9188 5.16436 11.9877C5.45018 12.058 5.75036 12.0737 6.04401 12.0333C6.29068 11.9995 6.54257 11.9812 6.79838 11.9812C7.50706 11.9812 8.18181 12.1166 8.79913 12.3601C9.15543 12.489 9.49345 12.6634 9.80146 12.8847C11.2723 13.8663 12.2225 15.5509 12.1833 17.4672C12.1363 19.7168 10.7372 21.6501 8.77694 22.4963C8.68558 22.5405 8.59422 22.5835 8.50026 22.6225C8.49634 22.6238 8.49242 22.6251 8.48851 22.6277C8.41281 22.6603 8.43239 22.7723 8.51461 22.7723H19.0926C21.2591 22.0719 22.8684 19.9459 22.9206 17.4321C22.9545 15.8087 22.3319 14.3467 21.3113 13.326V13.3247Z" fill="#495AFF"/>
<path d="M34.2587 9.55503C34.2587 7.13821 36.2967 5.42479 39.1645 5.42479C42.0322 5.42479 43.8358 7.01196 43.8358 9.537H40.932C40.932 8.59912 40.2286 8.02197 39.1284 8.02197C37.938 8.02197 37.1805 8.56305 37.1805 9.44682C37.1805 10.2584 37.5953 10.6552 38.5332 10.8536L40.5352 11.2685C42.9159 11.7554 44.0522 12.8917 44.0522 15.0019C44.0522 17.581 42.0322 19.2584 38.9661 19.2584C35.9901 19.2584 34.0603 17.6532 34.0603 15.1462H36.9641C36.9641 16.1201 37.6855 16.6612 38.9841 16.6612C40.3007 16.6612 41.1304 16.1382 41.1304 15.2905C41.1304 14.551 40.7877 14.1722 39.9039 13.9919L37.8659 13.5771C35.4851 13.0901 34.2587 11.7374 34.2587 9.55503ZM45.1592 14.4789C45.1592 11.7013 47.071 9.71736 49.7764 9.71736C52.4457 9.71736 54.2132 11.1783 54.3936 13.541H51.598C51.3996 12.6392 50.8405 12.2063 49.8846 12.2063C48.7123 12.2063 47.9547 13.0901 47.9547 14.4789C47.9547 15.9217 48.6582 16.7694 49.8485 16.7694C50.8225 16.7694 51.4177 16.3185 51.598 15.4348H54.3936C54.2132 17.7073 52.3736 19.2584 49.8485 19.2584C46.9988 19.2584 45.1592 17.3646 45.1592 14.4789ZM58.6922 19.0239H55.9147V5.42479H58.7103V10.9438C59.2694 10.1683 60.2974 9.71736 61.4698 9.71736C63.616 9.71736 64.8605 11.0881 64.8605 13.4508V19.0239H62.083V14.1181C62.083 12.9819 61.4517 12.2424 60.4958 12.2424C59.3956 12.2424 58.6922 12.9638 58.6922 14.0821V19.0239ZM66.3655 14.4969C66.3655 11.6472 68.4577 9.73539 71.3435 9.73539C74.2112 9.73539 76.3034 11.6472 76.3034 14.4969C76.3034 17.3466 74.2112 19.2404 71.3435 19.2404C68.4577 19.2404 66.3655 17.3466 66.3655 14.4969ZM69.1611 14.4789C69.1611 15.8496 70.0449 16.7514 71.3435 16.7514C72.624 16.7514 73.5078 15.8496 73.5078 14.4789C73.5078 13.1262 72.624 12.2244 71.3435 12.2244C70.0449 12.2244 69.1611 13.1262 69.1611 14.4789ZM80.6912 19.0239H77.9137V5.42479H80.6912V19.0239ZM85.4984 19.2584C83.5865 19.2584 82.3962 18.1402 82.3962 16.3726C82.3962 14.7133 83.5685 13.6853 85.7328 13.5229L88.2579 13.3246V13.1803C88.2579 12.2965 87.7168 11.8276 86.7248 11.8276C85.5525 11.8276 84.9212 12.2785 84.9212 13.0901H82.6126C82.6126 11.052 84.2899 9.71736 86.8691 9.71736C89.4843 9.71736 90.9633 11.1783 90.9633 13.7574V19.0239H88.5104L88.33 17.8336C88.0414 18.6632 86.851 19.2584 85.4984 19.2584ZM86.4723 17.2023C87.5364 17.2023 88.2759 16.6792 88.2759 15.6512V15.1642L86.8691 15.2905C85.6607 15.3987 85.2278 15.6692 85.2278 16.2464C85.2278 16.8957 85.6246 17.2023 86.4723 17.2023ZM99.1598 10.0059V12.6211H98.276C96.6888 12.6211 95.7329 13.3246 95.7329 15.1101V19.0239H92.9554V10.024H95.5706L95.7149 11.3586C96.0936 10.4749 96.8872 9.87968 98.0956 9.87968C98.4203 9.87968 98.781 9.91575 99.1598 10.0059ZM103.829 19.0239H100.907V5.67729H103.829V10.9438H108.987V5.67729H111.909V19.0239H108.987V13.6492H103.829V19.0239ZM113.851 14.4969C113.851 11.6472 115.943 9.73539 118.829 9.73539C121.697 9.73539 123.789 11.6472 123.789 14.4969C123.789 17.3466 121.697 19.2404 118.829 19.2404C115.943 19.2404 113.851 17.3466 113.851 14.4969ZM116.647 14.4789C116.647 15.8496 117.53 16.7514 118.829 16.7514C120.109 16.7514 120.993 15.8496 120.993 14.4789C120.993 13.1262 120.109 12.2244 118.829 12.2244C117.53 12.2244 116.647 13.1262 116.647 14.4789ZM131.176 10.0059H133.953V19.0239H131.338L131.158 18.0139C130.598 18.7534 129.48 19.2584 128.398 19.2584C126.342 19.2584 125.079 17.8877 125.079 15.6692V10.0059H127.857V14.6592C127.857 16.1382 128.362 16.7875 129.498 16.7875C130.689 16.7875 131.176 16.1742 131.176 14.6953V10.0059ZM135.212 16.1742H137.845C137.881 16.8055 138.35 17.1843 139.198 17.1843C140.064 17.1843 140.46 16.8776 140.46 16.4087C140.46 16.1382 140.316 15.8496 139.649 15.7053L137.99 15.3446C136.33 14.9839 135.519 14.2624 135.519 12.6753C135.519 10.7995 137.124 9.71736 139.288 9.71736C141.38 9.71736 142.841 10.9438 142.841 12.7654H140.208C140.208 12.1522 139.829 11.7374 139.162 11.7374C138.531 11.7374 138.134 12.062 138.134 12.549C138.134 12.9638 138.477 13.1983 139.108 13.3426L140.785 13.7033C142.264 14.028 143.076 14.7133 143.076 16.1562C143.076 18.0861 141.434 19.2584 139.09 19.2584C136.709 19.2584 135.212 17.9959 135.212 16.1742ZM148.711 19.2584C145.988 19.2584 144.04 17.2744 144.04 14.4969C144.04 11.6833 145.934 9.71736 148.657 9.71736C151.489 9.71736 153.256 11.5751 153.256 14.5149V15.2183L146.709 15.2544C146.872 16.4448 147.539 17.0039 148.765 17.0039C149.812 17.0039 150.551 16.6251 150.749 15.9758H153.293C152.968 17.9778 151.182 19.2584 148.711 19.2584ZM148.675 11.9719C147.575 11.9719 146.962 12.4588 146.745 13.541H150.497C150.497 12.5851 149.794 11.9719 148.675 11.9719Z" fill="#26203B"/>
</svg>
