<svg width="28" height="28" viewBox="0 0 28 28" fill="none" xmlns="http://www.w3.org/2000/svg">
<rect x="0.756348" y="0.209473" width="27.1804" height="27.1804" rx="13.5902" fill="#43454C"/>
<path fill-rule="evenodd" clip-rule="evenodd" d="M11.7938 8.51728C11.9075 8.40366 12.0617 8.33984 12.2225 8.33984C12.3833 8.33984 12.5375 8.40366 12.6513 8.51728L17.5049 13.3709C17.6185 13.4847 17.6823 13.6389 17.6823 13.7997C17.6823 13.9604 17.6185 14.1146 17.5049 14.2284L12.6513 19.082C12.5362 19.1892 12.3841 19.2475 12.227 19.2448C12.0698 19.242 11.9198 19.1783 11.8086 19.0672C11.6975 18.956 11.6338 18.806 11.631 18.6489C11.6283 18.4917 11.6866 18.3396 11.7938 18.2246L16.2187 13.7997L11.7938 9.37475C11.6802 9.261 11.6163 9.10679 11.6163 8.94601C11.6163 8.78524 11.6802 8.63103 11.7938 8.51728Z" fill="white"/>
</svg>
