<svg width="28" height="28" viewBox="0 0 28 28" fill="none" xmlns="http://www.w3.org/2000/svg">
<g opacity="0.4">
<rect x="0.0443115" y="0.209473" width="27.1804" height="27.1804" rx="13.5902" fill="#43454C"/>
<path fill-rule="evenodd" clip-rule="evenodd" d="M16.1862 8.51728C16.2998 8.63103 16.3636 8.78524 16.3636 8.94601C16.3636 9.10679 16.2998 9.261 16.1862 9.37475L11.7613 13.7997L16.1862 18.2246C16.2458 18.2801 16.2936 18.3471 16.3267 18.4215C16.3599 18.4959 16.3777 18.5763 16.3792 18.6577C16.3806 18.7392 16.3656 18.8201 16.3351 18.8956C16.3046 18.9712 16.2592 19.0398 16.2016 19.0974C16.144 19.155 16.0753 19.2005 15.9998 19.231C15.9242 19.2615 15.8433 19.2765 15.7619 19.275C15.6804 19.2736 15.6001 19.2558 15.5256 19.2226C15.4512 19.1895 15.3842 19.1416 15.3287 19.082L10.4751 14.2284C10.3614 14.1146 10.2976 13.9604 10.2976 13.7997C10.2976 13.6389 10.3614 13.4847 10.4751 13.3709L15.3287 8.51728C15.4425 8.40366 15.5967 8.33984 15.7574 8.33984C15.9182 8.33984 16.0724 8.40366 16.1862 8.51728Z" fill="white"/>
</g>
</svg>
