<svg width="20" height="20" viewBox="0 0 20 20" fill="none" xmlns="http://www.w3.org/2000/svg">
<g clip-path="url(#clip0_45_21097)">
<path d="M13.4913 6.50849C13.3177 6.33492 13.1224 6.24814 12.9055 6.24814C12.6885 6.24814 12.4932 6.33492 12.3197 6.50849L10.2369 8.59131L8.15403 6.50849C7.98047 6.33492 7.7852 6.25899 7.56824 6.28068C7.35128 6.30238 7.16686 6.38916 7.01499 6.54104C6.86312 6.69291 6.77634 6.87733 6.75464 7.09429C6.73294 7.31125 6.80888 7.50651 6.98245 7.68008L9.06527 9.7629L6.98245 11.8457C6.80888 12.0193 6.73294 12.2146 6.75464 12.4315C6.77634 12.6485 6.86312 12.8329 7.01499 12.9848C7.16686 13.1366 7.35128 13.2234 7.56824 13.2451C7.7852 13.2668 7.98047 13.1909 8.15403 13.0173L10.2369 10.9345L12.3197 13.0173C12.4932 13.1909 12.6885 13.2668 12.9055 13.2451C13.1224 13.2234 13.3068 13.1366 13.4587 12.9848C13.6106 12.8329 13.6974 12.6485 13.7191 12.4315C13.7408 12.2146 13.6648 12.0193 13.4913 11.8457L11.4084 9.7629L13.4913 7.68008C13.6648 7.50651 13.7516 7.31125 13.7516 7.09429C13.7516 6.87733 13.6648 6.68206 13.4913 6.50849ZM10.2369 -0.000322342C8.45778 -0.000322342 6.81973 0.433598 5.3227 1.30144C3.82567 2.16928 2.64324 3.35172 1.7754 4.84874C0.907554 6.34577 0.473633 7.98382 0.473633 9.7629C0.473633 11.542 0.907554 13.18 1.7754 14.6771C2.64324 16.1741 3.82567 17.3565 5.3227 18.2244C6.81973 19.0922 8.45778 19.5261 10.2369 19.5261C12.0159 19.5261 13.654 19.0922 15.151 18.2244C16.648 17.3565 17.8305 16.1741 18.6983 14.6771C19.5662 13.18 20.0001 11.542 20.0001 9.7629C20.0001 7.98382 19.5662 6.34577 18.6983 4.84874C17.8305 3.35172 16.648 2.16928 15.151 1.30144C13.654 0.433598 12.0159 -0.000322342 10.2369 -0.000322342ZM10.2369 17.8989C8.76152 17.8989 7.40552 17.5301 6.16885 16.7924C4.93217 16.0548 3.945 15.0676 3.20734 13.8309C2.46967 12.5942 2.10084 11.2382 2.10084 9.7629C2.10084 8.28757 2.46967 6.93157 3.20734 5.69489C3.945 4.45822 4.93217 3.47104 6.16885 2.73338C7.40552 1.99571 8.76152 1.62688 10.2369 1.62688C11.7122 1.62688 13.0682 1.99571 14.3049 2.73338C15.5415 3.47104 16.5287 4.45822 17.2664 5.69489C18.004 6.93157 18.3729 8.28757 18.3729 9.7629C18.3729 11.2382 18.004 12.5942 17.2664 13.8309C16.5287 15.0676 15.5415 16.0548 14.3049 16.7924C13.0682 17.5301 11.7122 17.8989 10.2369 17.8989Z" fill="#282C3F" fill-opacity="0.5"/>
</g>
<defs>
<clipPath id="clip0_45_21097">
<rect width="19.5264" height="19.5264" fill="white" transform="matrix(1 0 0 -1 0.473633 19.5261)"/>
</clipPath>
</defs>
</svg>
