<svg width="165" height="32" viewBox="0 0 165 32" fill="none" xmlns="http://www.w3.org/2000/svg">
<path d="M22.7209 13.5285C24.6662 11.6083 24.7147 8.51079 22.8291 6.61013C20.9435 4.70946 17.8379 4.72534 15.8925 6.64561C13.9471 8.56588 13.8987 11.6634 15.7843 13.564C17.6699 15.4647 20.7755 15.4488 22.7209 13.5285Z" fill="white"/>
<path d="M10.3513 25.3544C12.2964 23.4338 12.3443 20.3363 10.4583 18.4359C8.57241 16.5356 5.46681 16.552 3.52178 18.4726C1.57676 20.3932 1.52885 23.4907 3.41478 25.3911C5.30071 27.2914 8.40632 27.275 10.3513 25.3544Z" fill="white"/>
<path d="M22.7421 17.3881C22.7421 17.3881 22.7296 17.3755 22.724 17.37C21.8758 16.5309 20.7198 16.071 19.5122 16.0627C19.4509 16.0627 19.3897 16.0641 19.327 16.0682C19.2142 16.0752 19.1013 16.0793 18.9885 16.0793C18.7726 16.0793 18.5609 16.0668 18.3506 16.0446C17.1013 15.9571 15.9355 15.4305 15.0776 14.5622C13.9174 13.4911 13.2057 11.9448 13.2419 10.2263C13.2948 7.71303 14.9272 5.57075 17.1737 4.74134C17.164 4.70383 17.1333 4.67188 17.0846 4.67188H5.8657C3.55367 5.41931 1.83637 7.68803 1.78066 10.3707C1.7347 12.6103 2.85728 14.5608 4.55648 15.5792C4.58434 15.5959 4.61498 15.6139 4.6484 15.6306C4.92 15.7779 5.21109 15.8876 5.51054 15.9613C5.81556 16.0363 6.1359 16.0529 6.44928 16.0099C6.71251 15.9738 6.98132 15.9543 7.25431 15.9543C8.01059 15.9543 8.73066 16.0988 9.38945 16.3586C9.76968 16.4961 10.1304 16.6823 10.4591 16.9185C12.0288 17.966 13.0427 19.7637 13.0009 21.8088C12.9508 24.2095 11.4577 26.2726 9.36577 27.1756C9.26827 27.2228 9.17078 27.2687 9.0705 27.3104C9.06632 27.3118 9.06214 27.3131 9.05796 27.3159C8.97718 27.3507 8.99807 27.4701 9.08582 27.4701H20.3743C22.6864 26.7227 24.4037 24.454 24.4594 21.7713C24.4956 20.0388 23.8312 18.4786 22.7421 17.3894V17.3881Z" fill="white"/>
<path d="M36.5601 12.8951C36.5601 10.3159 38.7351 8.48743 41.7954 8.48743C44.8557 8.48743 46.7805 10.1812 46.7805 12.8758H43.6816C43.6816 11.875 42.931 11.2591 41.7569 11.2591C40.4866 11.2591 39.6782 11.8365 39.6782 12.7796C39.6782 13.6457 40.1209 14.0692 41.1217 14.2809L43.2582 14.7236C45.7989 15.2433 47.0115 16.4559 47.0115 18.7078C47.0115 21.4602 44.8557 23.2502 41.5837 23.2502C38.4078 23.2502 36.3484 21.5372 36.3484 18.8618H39.4472C39.4472 19.9012 40.2171 20.4786 41.6029 20.4786C43.008 20.4786 43.8934 19.9204 43.8934 19.0158C43.8934 18.2266 43.5277 17.8224 42.5845 17.63L40.4096 17.1873C37.8689 16.6676 36.5601 15.224 36.5601 12.8951ZM48.1928 18.1496C48.1928 15.1855 50.233 13.0683 53.1201 13.0683C55.9687 13.0683 57.855 14.6274 58.0475 17.1488H55.0641C54.8524 16.1864 54.2557 15.7245 53.2356 15.7245C51.9845 15.7245 51.1761 16.6676 51.1761 18.1496C51.1761 19.6894 51.9268 20.5941 53.1971 20.5941C54.2365 20.5941 54.8716 20.1129 55.0641 19.1698H58.0475C57.855 21.5949 55.8917 23.2502 53.1971 23.2502C50.156 23.2502 48.1928 21.2292 48.1928 18.1496ZM62.6348 23H59.6707V8.48743H62.6541V14.3771C63.2507 13.5495 64.3478 13.0683 65.5989 13.0683C67.8894 13.0683 69.2174 14.5311 69.2174 17.0525V23H66.2533V17.7647C66.2533 16.5521 65.5797 15.763 64.5596 15.763C63.3855 15.763 62.6348 16.5329 62.6348 17.7262V23ZM70.8235 18.1689C70.8235 15.1278 73.0563 13.0876 76.1358 13.0876C79.1962 13.0876 81.4289 15.1278 81.4289 18.1689C81.4289 21.21 79.1962 23.231 76.1358 23.231C73.0563 23.231 70.8235 21.21 70.8235 18.1689ZM73.8069 18.1496C73.8069 19.6124 74.75 20.5748 76.1358 20.5748C77.5024 20.5748 78.4455 19.6124 78.4455 18.1496C78.4455 16.7061 77.5024 15.7437 76.1358 15.7437C74.75 15.7437 73.8069 16.7061 73.8069 18.1496ZM86.1114 23H83.1473V8.48743H86.1114V23ZM91.2415 23.2502C89.2012 23.2502 87.9309 22.0569 87.9309 20.1706C87.9309 18.3999 89.182 17.3028 91.4917 17.1295L94.1863 16.9178V16.7638C94.1863 15.8207 93.6089 15.3203 92.5503 15.3203C91.2992 15.3203 90.6256 15.8015 90.6256 16.6676H88.1619C88.1619 14.4926 89.9519 13.0683 92.7043 13.0683C95.4952 13.0683 97.0735 14.6274 97.0735 17.3797V23H94.4558L94.2633 21.7297C93.9554 22.6151 92.685 23.2502 91.2415 23.2502ZM92.2808 21.056C93.4164 21.056 94.2056 20.4978 94.2056 19.4007V18.881L92.7043 19.0158C91.4147 19.1313 90.9528 19.42 90.9528 20.0359C90.9528 20.7288 91.3762 21.056 92.2808 21.056ZM105.821 13.3763V16.1672H104.877C103.184 16.1672 102.164 16.9178 102.164 18.8233V23H99.1994V13.3955H101.99L102.144 14.8198C102.548 13.8767 103.395 13.2415 104.685 13.2415C105.031 13.2415 105.416 13.28 105.821 13.3763ZM110.803 23H107.685V8.75689H110.803V14.3771H116.308V8.75689H119.426V23H116.308V17.2643H110.803V23ZM121.498 18.1689C121.498 15.1278 123.731 13.0876 126.811 13.0876C129.871 13.0876 132.104 15.1278 132.104 18.1689C132.104 21.21 129.871 23.231 126.811 23.231C123.731 23.231 121.498 21.21 121.498 18.1689ZM124.482 18.1496C124.482 19.6124 125.425 20.5748 126.811 20.5748C128.177 20.5748 129.12 19.6124 129.12 18.1496C129.12 16.7061 128.177 15.7437 126.811 15.7437C125.425 15.7437 124.482 16.7061 124.482 18.1496ZM139.987 13.3763H142.951V23H140.16L139.968 21.9221C139.371 22.7113 138.178 23.2502 137.023 23.2502C134.829 23.2502 133.481 21.7874 133.481 19.42V13.3763H136.445V18.3421C136.445 19.9204 136.984 20.6133 138.197 20.6133C139.467 20.6133 139.987 19.9589 139.987 18.3806V13.3763ZM144.294 19.9589H147.104C147.143 20.6326 147.643 21.0368 148.548 21.0368C149.472 21.0368 149.895 20.7096 149.895 20.2091C149.895 19.9204 149.741 19.6124 149.029 19.4585L147.258 19.0735C145.488 18.6886 144.622 17.9187 144.622 16.2249C144.622 14.2232 146.335 13.0683 148.644 13.0683C150.877 13.0683 152.436 14.3771 152.436 16.3211H149.626C149.626 15.6667 149.222 15.224 148.51 15.224C147.836 15.224 147.412 15.5705 147.412 16.0902C147.412 16.5329 147.778 16.7831 148.452 16.9371L150.242 17.322C151.82 17.6685 152.686 18.3999 152.686 19.9397C152.686 21.9991 150.935 23.2502 148.433 23.2502C145.892 23.2502 144.294 21.9029 144.294 19.9589ZM158.7 23.2502C155.794 23.2502 153.715 21.133 153.715 18.1689C153.715 15.1663 155.736 13.0683 158.643 13.0683C161.665 13.0683 163.551 15.0508 163.551 18.1881V18.9388L156.564 18.9773C156.737 20.2476 157.449 20.8443 158.758 20.8443C159.875 20.8443 160.664 20.4401 160.875 19.7472H163.589C163.243 21.8836 161.337 23.2502 158.7 23.2502ZM158.662 15.4742C157.488 15.4742 156.833 15.9939 156.602 17.1488H160.606C160.606 16.1287 159.855 15.4742 158.662 15.4742Z" fill="white"/>
</svg>
