<svg width="42" height="42" viewBox="0 0 42 42" fill="none" xmlns="http://www.w3.org/2000/svg">
<path d="M38.8451 6.69364C35.6737 6.14894 27.8461 5.41064 21.7879 5.41064C21.5352 5.41064 21.2859 5.41064 21.0455 5.41064H20.97C20.7321 5.41064 20.4844 5.41064 20.2317 5.41064C14.3688 5.41064 6.8472 6.10218 3.49368 6.64114C3.19836 8.79944 2.93913 13.2194 2.93421 15.9109C2.93913 18.9757 3.27629 24.2898 3.61837 25.9395C4.22049 28.6572 6.8554 31.1469 9.57972 31.6752C10.9743 31.9541 16.048 32.2888 19.4483 32.3676V35.9204L14.1121 39.1025C13.9362 39.2073 13.7828 39.3458 13.6605 39.5099C13.5382 39.674 13.4494 39.8606 13.3992 40.059C13.349 40.2575 13.3384 40.4639 13.3679 40.6664C13.3975 40.8689 13.4666 41.0637 13.5715 41.2395C13.6763 41.4153 13.8147 41.5687 13.9788 41.6911C14.1429 41.8134 14.3295 41.9022 14.528 41.9524C14.7264 42.0026 14.9328 42.0132 15.1353 41.9836C15.3379 41.9541 15.5326 41.8849 15.7084 41.7801L21.0078 38.6169L26.3063 41.7768C26.6614 41.9886 27.086 42.0507 27.4869 41.9494C27.8877 41.8481 28.2319 41.5917 28.4437 41.2366C28.6555 40.8815 28.7175 40.4569 28.6162 40.056C28.5149 39.6552 28.2586 39.311 27.9035 39.0992L22.5664 35.9172V32.3717C25.9601 32.3061 31.312 31.9615 32.7525 31.6719C35.4768 31.1437 38.1117 28.6539 38.713 25.9362C39.0559 24.2857 39.3922 18.9716 39.398 15.9076C39.3922 13.2407 39.1371 8.87081 38.8451 6.69364ZM20.9011 19.7952C20.8634 19.972 20.7724 20.1329 20.6404 20.2564C20.5084 20.3799 20.3417 20.46 20.1628 20.4859C19.9934 20.5082 19.8278 20.5535 19.6706 20.6204C18.7478 21.0125 18.304 22.0675 18.6526 22.9592C18.7095 23.1302 18.7128 23.3144 18.6623 23.4874C18.6117 23.6603 18.5096 23.8138 18.3696 23.9272C17.8184 24.3992 17.2013 24.7883 16.5378 25.0822C16.3728 25.1569 16.1869 25.1717 16.0122 25.1241C15.8374 25.0764 15.6848 24.9694 15.5805 24.8213C15.4208 24.5986 15.2104 24.4171 14.9666 24.2919C14.7227 24.1668 14.4526 24.1017 14.1785 24.1019C13.8951 24.1006 13.6158 24.1702 13.3661 24.3043C13.1164 24.4384 12.9041 24.6327 12.7487 24.8697C12.6764 24.9787 12.5779 25.0677 12.4622 25.1285C12.3465 25.1892 12.2173 25.2199 12.0867 25.2176C11.9904 25.2139 11.8953 25.1945 11.8053 25.1601C11.0804 24.8641 10.4075 24.4543 9.81188 23.9461C9.66514 23.8307 9.55953 23.6711 9.51076 23.4909C9.46199 23.3108 9.47265 23.1197 9.54117 22.9461C9.61851 22.7652 9.66429 22.5723 9.67652 22.3759C9.70134 21.8997 9.54298 21.432 9.23394 21.0688C8.9249 20.7056 8.4886 20.4745 8.01453 20.4227C7.82902 20.4014 7.65508 20.3217 7.5177 20.1952C7.38032 20.0688 7.28658 19.902 7.24998 19.7189C7.18644 19.3736 7.15459 19.0232 7.15482 18.6721C7.15534 18.2526 7.20239 17.8344 7.2951 17.4252C7.33655 17.2477 7.43174 17.0874 7.56768 16.966C7.70362 16.8446 7.8737 16.768 8.05472 16.7468C8.23268 16.7272 8.40696 16.6825 8.57235 16.6139C9.49933 16.2308 9.95543 15.18 9.61746 14.2834C9.56151 14.109 9.56038 13.9217 9.61421 13.7467C9.66805 13.5717 9.77426 13.4174 9.91852 13.3047C10.4833 12.8414 11.1147 12.4659 11.7913 12.1907C11.9511 12.123 12.1289 12.1104 12.2966 12.155C12.4643 12.1996 12.6124 12.2987 12.7175 12.4368C12.8781 12.6495 13.0858 12.822 13.3244 12.9409C13.563 13.0597 13.8259 13.1215 14.0924 13.1215C14.3589 13.1215 14.6218 13.0597 14.8603 12.9409C15.0989 12.822 15.3067 12.6495 15.4672 12.4368C15.5722 12.2988 15.7201 12.1996 15.8877 12.1551C16.0553 12.1105 16.2329 12.123 16.3926 12.1907C17.1259 12.489 17.8058 12.9046 18.4057 13.4212C18.5433 13.5326 18.6443 13.6829 18.6955 13.8524C18.7467 14.0219 18.7457 14.203 18.6928 14.372C18.6481 14.4968 18.6181 14.6265 18.6034 14.7583C18.5552 15.2362 18.6918 15.7145 18.9852 16.0948C19.2785 16.4751 19.7064 16.7287 20.1809 16.8034C20.3558 16.8301 20.5185 16.9091 20.6477 17.03C20.7768 17.151 20.8663 17.3082 20.9044 17.481C21.073 18.2437 21.073 19.0341 20.9044 19.7968L20.9011 19.7952ZM28.8584 22.7566H24.9692C24.5558 22.7566 24.1593 22.5924 23.867 22.3001C23.5747 22.0078 23.4105 21.6113 23.4105 21.1979C23.4105 20.7846 23.5747 20.3881 23.867 20.0958C24.1593 19.8035 24.5558 19.6393 24.9692 19.6393H28.8608C29.2742 19.6393 29.6706 19.8035 29.9629 20.0958C30.2552 20.3881 30.4194 20.7846 30.4194 21.1979C30.4194 21.6113 30.2552 22.0078 29.9629 22.3001C29.6706 22.5924 29.2742 22.7566 28.8608 22.7566H28.8584ZM33.3751 16.9191H24.9692C24.5558 16.9191 24.1593 16.7549 23.867 16.4626C23.5747 16.1703 23.4105 15.7738 23.4105 15.3605C23.4105 14.9471 23.5747 14.5506 23.867 14.2583C24.1593 13.966 24.5558 13.8018 24.9692 13.8018H33.3776C33.7909 13.8018 34.1874 13.966 34.4797 14.2583C34.772 14.5506 34.9362 14.9471 34.9362 15.3605C34.9362 15.7738 34.772 16.1703 34.4797 16.4626C34.1874 16.7549 33.7909 16.9191 33.3776 16.9191H33.3751Z" fill="black"/>
<path d="M14.0924 16.3555C13.635 16.3555 13.1879 16.4911 12.8076 16.7452C12.4273 16.9993 12.1309 17.3605 11.9559 17.783C11.7809 18.2056 11.7351 18.6706 11.8243 19.1191C11.9135 19.5677 12.1338 19.9798 12.4572 20.3032C12.7806 20.6266 13.1926 20.8468 13.6412 20.9361C14.0898 21.0253 14.5548 20.9795 14.9773 20.8045C15.3999 20.6294 15.7611 20.333 16.0152 19.9528C16.2693 19.5725 16.4049 19.1254 16.4049 18.668C16.4014 18.0557 16.1567 17.4695 15.7238 17.0366C15.2908 16.6037 14.7046 16.3589 14.0924 16.3555Z" fill="black"/>
<path d="M40.0395 5.37951C39.9095 5.37957 39.7798 5.36665 39.6523 5.34095C36.5818 4.72735 27.408 3.86436 21.0308 3.93819H20.9873C14.6035 3.86846 5.43296 4.72735 2.36574 5.34095C2.11172 5.39324 1.84987 5.39483 1.59523 5.34562C1.3406 5.29641 1.09819 5.19738 0.881944 5.05421C0.665696 4.91104 0.479864 4.72655 0.335126 4.51135C0.190387 4.29615 0.0895927 4.05447 0.038533 3.8002C-0.0125266 3.54593 -0.0128455 3.28407 0.0375948 3.02968C0.088035 2.77528 0.18824 2.53336 0.332455 2.31781C0.476669 2.10225 0.66205 1.91732 0.877949 1.77362C1.09385 1.62992 1.33601 1.5303 1.59053 1.48047C5.19999 0.758577 14.861 -0.0633956 21.0078 0.00387166C23.9331 -0.0264806 27.7468 0.131844 31.7541 0.451773C35.4227 0.745452 38.6654 1.13101 40.4283 1.48375C40.9038 1.5833 41.3257 1.85512 41.6129 2.24694C41.9 2.63876 42.0322 3.12292 41.984 3.6063C41.9357 4.08968 41.7104 4.53816 41.3515 4.8655C40.9926 5.19283 40.5253 5.3759 40.0395 5.37951Z" fill="black"/>
</svg>
