<svg width="206" height="32" viewBox="0 0 206 32" fill="none" xmlns="http://www.w3.org/2000/svg">
<path d="M28.3313 12.9179C30.7571 10.5235 30.8175 6.66116 28.4663 4.29118C26.1151 1.9212 22.2426 1.94101 19.8169 4.33543C17.3912 6.72984 17.3308 10.5921 19.682 12.9621C22.0332 15.3321 25.9056 15.3123 28.3313 12.9179Z" fill="#495AFF"/>
<path d="M12.9073 27.6637C15.3326 25.2688 15.3923 21.4065 13.0407 19.037C10.6891 16.6674 6.81667 16.6879 4.39138 19.0827C1.96609 21.4775 1.90635 25.3399 4.25795 27.7094C6.60956 30.079 10.482 30.0585 12.9073 27.6637Z" fill="#495AFF"/>
<path d="M28.3576 17.731C28.3576 17.731 28.342 17.7155 28.3351 17.7085C27.2774 16.6622 25.836 16.0888 24.3303 16.0784C24.2538 16.0784 24.1774 16.0801 24.0993 16.0853C23.9586 16.094 23.8179 16.0992 23.6773 16.0992C23.4081 16.0992 23.1441 16.0836 22.8819 16.0559C21.324 15.9467 19.8704 15.2902 18.8006 14.2075C17.354 12.8718 16.4665 10.9438 16.5117 8.80087C16.5777 5.66708 18.6131 2.99582 21.4144 1.96162C21.4022 1.91484 21.364 1.875 21.3032 1.875H7.31416C4.43125 2.807 2.28991 5.63589 2.22045 8.98103C2.16314 11.7736 3.56291 14.2057 5.68167 15.4755C5.71641 15.4963 5.75461 15.5189 5.79629 15.5396C6.13495 15.7233 6.49792 15.8601 6.8713 15.9519C7.25164 16.0455 7.65108 16.0663 8.04183 16.0126C8.37007 15.9675 8.70525 15.9433 9.04564 15.9433C9.98867 15.9433 10.8865 16.1234 11.708 16.4474C12.1821 16.6189 12.6319 16.851 13.0418 17.1455C14.999 18.4517 16.2633 20.6933 16.2112 23.2433C16.1487 26.2368 14.287 28.8093 11.6785 29.9353C11.5569 29.9942 11.4353 30.0514 11.3103 30.1034C11.3051 30.1051 11.2999 30.1068 11.2947 30.1103C11.1939 30.1536 11.22 30.3026 11.3294 30.3026H25.4053C28.2882 29.3706 30.4295 26.5417 30.499 23.1966C30.5441 21.0363 29.7157 19.0909 28.3576 17.7328V17.731Z" fill="#495AFF"/>
<path d="M45.5876 12.4C45.5876 9.184 48.2996 6.904 52.1156 6.904C55.9316 6.904 58.3316 9.016 58.3316 12.376H54.4676C54.4676 11.128 53.5316 10.36 52.0676 10.36C50.4836 10.36 49.4756 11.08 49.4756 12.256C49.4756 13.336 50.0276 13.864 51.2756 14.128L53.9396 14.68C57.1076 15.328 58.6196 16.84 58.6196 19.648C58.6196 23.08 55.9316 25.312 51.8516 25.312C47.8916 25.312 45.3236 23.176 45.3236 19.84H49.1876C49.1876 21.136 50.1476 21.856 51.8756 21.856C53.6276 21.856 54.7316 21.16 54.7316 20.032C54.7316 19.048 54.2756 18.544 53.0996 18.304L50.3876 17.752C47.2196 17.104 45.5876 15.304 45.5876 12.4ZM60.0926 18.952C60.0926 15.256 62.6366 12.616 66.2366 12.616C69.7886 12.616 72.1406 14.56 72.3806 17.704H68.6606C68.3966 16.504 67.6526 15.928 66.3806 15.928C64.8206 15.928 63.8126 17.104 63.8126 18.952C63.8126 20.872 64.7486 22 66.3326 22C67.6286 22 68.4206 21.4 68.6606 20.224H72.3806C72.1406 23.248 69.6926 25.312 66.3326 25.312C62.5406 25.312 60.0926 22.792 60.0926 18.952ZM78.1007 25H74.4047V6.904H78.1247V14.248C78.8687 13.216 80.2367 12.616 81.7967 12.616C84.6527 12.616 86.3087 14.44 86.3087 17.584V25H82.6127V18.472C82.6127 16.96 81.7727 15.976 80.5007 15.976C79.0367 15.976 78.1007 16.936 78.1007 18.424V25ZM88.3114 18.976C88.3114 15.184 91.0954 12.64 94.9354 12.64C98.7514 12.64 101.535 15.184 101.535 18.976C101.535 22.768 98.7514 25.288 94.9354 25.288C91.0954 25.288 88.3114 22.768 88.3114 18.976ZM92.0314 18.952C92.0314 20.776 93.2074 21.976 94.9354 21.976C96.6394 21.976 97.8154 20.776 97.8154 18.952C97.8154 17.152 96.6394 15.952 94.9354 15.952C93.2074 15.952 92.0314 17.152 92.0314 18.952ZM107.374 25H103.678V6.904H107.374V25ZM113.771 25.312C111.227 25.312 109.643 23.824 109.643 21.472C109.643 19.264 111.203 17.896 114.083 17.68L117.443 17.416V17.224C117.443 16.048 116.723 15.424 115.403 15.424C113.843 15.424 113.003 16.024 113.003 17.104H109.931C109.931 14.392 112.163 12.616 115.595 12.616C119.075 12.616 121.043 14.56 121.043 17.992V25H117.779L117.539 23.416C117.155 24.52 115.571 25.312 113.771 25.312ZM115.067 22.576C116.483 22.576 117.467 21.88 117.467 20.512V19.864L115.595 20.032C113.987 20.176 113.411 20.536 113.411 21.304C113.411 22.168 113.939 22.576 115.067 22.576ZM131.95 13V16.48H130.774C128.662 16.48 127.39 17.416 127.39 19.792V25H123.694V13.024H127.174L127.366 14.8C127.87 13.624 128.926 12.832 130.534 12.832C130.966 12.832 131.446 12.88 131.95 13ZM138.163 25H134.275V7.24H138.163V14.248H145.027V7.24H148.915V25H145.027V17.848H138.163V25ZM151.499 18.976C151.499 15.184 154.283 12.64 158.123 12.64C161.939 12.64 164.723 15.184 164.723 18.976C164.723 22.768 161.939 25.288 158.123 25.288C154.283 25.288 151.499 22.768 151.499 18.976ZM155.219 18.952C155.219 20.776 156.395 21.976 158.123 21.976C159.827 21.976 161.003 20.776 161.003 18.952C161.003 17.152 159.827 15.952 158.123 15.952C156.395 15.952 155.219 17.152 155.219 18.952ZM174.552 13H178.248V25H174.768L174.528 23.656C173.784 24.64 172.296 25.312 170.856 25.312C168.12 25.312 166.44 23.488 166.44 20.536V13H170.136V19.192C170.136 21.16 170.808 22.024 172.32 22.024C173.904 22.024 174.552 21.208 174.552 19.24V13ZM179.924 21.208H183.428C183.476 22.048 184.1 22.552 185.228 22.552C186.38 22.552 186.908 22.144 186.908 21.52C186.908 21.16 186.716 20.776 185.828 20.584L183.62 20.104C181.412 19.624 180.332 18.664 180.332 16.552C180.332 14.056 182.468 12.616 185.348 12.616C188.132 12.616 190.076 14.248 190.076 16.672H186.572C186.572 15.856 186.068 15.304 185.18 15.304C184.34 15.304 183.812 15.736 183.812 16.384C183.812 16.936 184.268 17.248 185.108 17.44L187.34 17.92C189.308 18.352 190.388 19.264 190.388 21.184C190.388 23.752 188.204 25.312 185.084 25.312C181.916 25.312 179.924 23.632 179.924 21.208ZM197.887 25.312C194.263 25.312 191.671 22.672 191.671 18.976C191.671 15.232 194.191 12.616 197.815 12.616C201.583 12.616 203.935 15.088 203.935 19V19.936L195.223 19.984C195.439 21.568 196.327 22.312 197.959 22.312C199.351 22.312 200.335 21.808 200.599 20.944H203.983C203.551 23.608 201.175 25.312 197.887 25.312ZM197.839 15.616C196.375 15.616 195.559 16.264 195.271 17.704H200.263C200.263 16.432 199.327 15.616 197.839 15.616Z" fill="#26203B"/>
</svg>
