<svg width="38" height="42" viewBox="0 0 38 42" fill="none" xmlns="http://www.w3.org/2000/svg">
<path d="M12.4058 9.73103H21.1518C22.154 9.73103 22.8404 8.61278 22.4687 7.58378L21.508 4.92465C21.2931 4.32878 20.7718 3.93896 20.1911 3.93896H13.3653C12.7858 3.93896 12.2633 4.33009 12.0484 4.92465L11.0889 7.58378C10.7172 8.61278 11.4036 9.73103 12.4058 9.73103Z" fill="black"/>
<path d="M33.4281 24.636C32.49 23.6122 30.9819 23.6122 30.0437 24.636L29.032 25.7621L32.4187 29.4922L33.4281 28.3766C34.3662 27.3397 34.3662 25.6729 33.4281 24.636Z" fill="black"/>
<path d="M27.7756 27.1558L21.9806 33.5608C21.85 33.692 21.7669 33.8758 21.7431 34.0726L21.2919 36.9601C21.1969 37.6033 21.6956 38.1545 22.2775 38.0495L24.9019 37.5639C25.0681 37.5245 25.2344 37.4326 25.3531 37.3014L31.16 30.8833L27.7756 27.1558Z" fill="black"/>
<path d="M25.7687 6.83838H24.1169L24.1229 6.85544C24.5171 7.9435 24.396 9.17594 23.8011 10.1472C23.2061 11.1198 22.2157 11.7012 21.1529 11.7012H12.4058C11.343 11.7012 10.3526 11.1211 9.75768 10.1472C9.16156 9.17463 9.04162 7.9435 9.43468 6.85413L9.44062 6.83838H7.79C5.61687 6.83838 3.87125 8.78088 3.87125 11.1696V33.7315C3.87125 36.1203 5.61687 38.0628 7.79 38.0628H19.6543C19.513 37.6113 19.4619 37.1269 19.5332 36.6426L19.9868 33.7381C20.0557 33.1514 20.3419 32.5437 20.7824 32.1027L27.0607 25.1609L28.7767 23.2486C29.051 22.9493 29.3609 22.7157 29.6851 22.5136V11.1696C29.6875 8.78088 27.93 6.83838 25.7687 6.83838ZM11.1874 28.6666H10.1056C9.51543 28.6666 9.03687 28.1376 9.03687 27.4853C9.03687 26.833 9.51543 26.3041 10.1056 26.3041H11.1886C11.7788 26.3041 12.2574 26.833 12.2574 27.4853C12.2574 28.1376 11.7776 28.6666 11.1874 28.6666ZM11.1874 21.499H10.1056C9.51543 21.499 9.03687 20.9701 9.03687 20.3178C9.03687 19.6654 9.51543 19.1365 10.1056 19.1365H11.1886C11.7788 19.1365 12.2574 19.6654 12.2574 20.3178C12.2574 20.9701 11.7776 21.499 11.1874 21.499ZM20.7587 28.6653H15.4743C14.8841 28.6653 14.4056 28.1363 14.4056 27.484C14.4056 26.8317 14.8841 26.3028 15.4743 26.3028H20.7587C21.3489 26.3028 21.8274 26.8317 21.8274 27.484C21.8274 28.1363 21.3501 28.6653 20.7587 28.6653ZM23.4531 21.499H15.4719C14.8817 21.499 14.4032 20.9701 14.4032 20.3178C14.4032 19.6654 14.8817 19.1365 15.4719 19.1365H23.4531C24.0433 19.1365 24.5219 19.6654 24.5219 20.3178C24.5219 20.9701 24.0433 21.499 23.4531 21.499Z" fill="black"/>
</svg>
