<svg width="19" height="19" viewBox="0 0 19 19" fill="none" xmlns="http://www.w3.org/2000/svg">
<g clip-path="url(#clip0_167_6891)">
<path d="M18.3839 4.26009C17.7109 4.5553 16.9938 4.75097 16.2462 4.84598C17.0153 4.38677 17.6023 3.66516 17.8783 2.79538C17.1612 3.22292 16.3695 3.52491 15.5257 3.69344C14.8448 2.96844 13.8744 2.51941 12.8157 2.51941C10.7617 2.51941 9.10815 4.18657 9.10815 6.23038C9.10815 6.52445 9.13304 6.80721 9.19411 7.0764C6.10975 6.92597 3.38053 5.44769 1.5471 3.19578C1.22701 3.75112 1.03926 4.38677 1.03926 5.07105C1.03926 6.35593 1.70092 7.49489 2.68719 8.15429C2.09113 8.14298 1.50638 7.96993 1.01098 7.69735C1.01098 7.70866 1.01098 7.72336 1.01098 7.73807C1.01098 9.54096 2.29698 11.0385 3.98338 11.3834C3.68139 11.466 3.35225 11.5056 3.01067 11.5056C2.77315 11.5056 2.53337 11.492 2.30829 11.4422C2.78899 12.9115 4.15303 13.9916 5.77496 14.0267C4.51271 15.0141 2.91001 15.609 1.17498 15.609C0.87073 15.609 0.57892 15.5955 0.287109 15.5581C1.93052 16.6179 3.87819 17.223 5.97854 17.223C12.8056 17.223 16.538 11.5678 16.538 6.66583C16.538 6.50183 16.5324 6.34348 16.5244 6.18627C17.2608 5.66372 17.8794 5.01111 18.3839 4.26009Z" fill="#495AFF"/>
</g>
<defs>
<clipPath id="clip0_167_6891">
<rect width="18.0968" height="18.0968" fill="white" transform="translate(0.287109 0.508667)"/>
</clipPath>
</defs>
</svg>
