<svg width="24" height="24" viewBox="0 0 24 24" fill="none" xmlns="http://www.w3.org/2000/svg">
<path fill-rule="evenodd" clip-rule="evenodd" d="M7.368 8.79393C7.782 8.79393 8.118 9.12993 8.118 9.54393C8.118 9.95793 7.782 10.2939 7.368 10.2939H6.435C4.816 10.2939 3.5 11.6099 3.5 13.2279V18.1029C3.5 19.7219 4.816 21.0379 6.435 21.0379H17.565C19.183 21.0379 20.5 19.7219 20.5 18.1029V13.2189C20.5 11.6059 19.188 10.2939 17.576 10.2939H16.633C16.219 10.2939 15.883 9.95793 15.883 9.54393C15.883 9.12993 16.219 8.79393 16.633 8.79393H17.576C20.015 8.79393 22 10.7789 22 13.2189V18.1029C22 20.5489 20.01 22.5379 17.565 22.5379H6.435C3.99 22.5379 2 20.5489 2 18.1029V13.2279C2 10.7829 3.99 8.79393 6.435 8.79393H7.368ZM12.5306 2.22153L15.4466 5.14953C15.7386 5.44353 15.7376 5.91753 15.4446 6.20953C15.1506 6.50153 14.6766 6.50153 14.3846 6.20753L12.749 4.56628L12.7496 15.5408H11.2496L11.249 4.56628L9.6156 6.20753C9.4696 6.35553 9.2766 6.42853 9.0846 6.42853C8.8936 6.42853 8.7016 6.35553 8.5556 6.20953C8.2626 5.91753 8.2606 5.44353 8.5536 5.14953L11.4686 2.22153C11.7496 1.93853 12.2496 1.93853 12.5306 2.22153Z" fill="#26203B"/>
</svg>
