<svg width="19" height="19" viewBox="0 0 19 19" fill="none" xmlns="http://www.w3.org/2000/svg">
<path fill-rule="evenodd" clip-rule="evenodd" d="M16.4805 3.91246C17.2556 4.12121 17.8669 4.7323 18.0755 5.50754C18.4632 6.92356 18.4483 9.87515 18.4483 9.87515C18.4483 9.87515 18.4483 12.8117 18.0756 14.2278C17.8669 15.003 17.2558 15.6142 16.4805 15.8228C15.0644 16.1956 9.39991 16.1956 9.39991 16.1956C9.39991 16.1956 3.75022 16.1956 2.31929 15.808C1.54405 15.5993 0.932962 14.988 0.724205 14.2129C0.351562 12.8117 0.351562 9.86024 0.351562 9.86024C0.351562 9.86024 0.351562 6.92356 0.724205 5.50754C0.932824 4.73244 1.55896 4.1063 2.31915 3.89768C3.7353 3.5249 9.39977 3.5249 9.39977 3.5249C9.39977 3.5249 15.0644 3.5249 16.4805 3.91246ZM12.3069 9.86036L7.59644 12.5734V7.14733L12.3069 9.86036Z" fill="#495AFF"/>
</svg>
